<svg xmlns="http://www.w3.org/2000/svg" version="1.1" xmlns:xlink="http://www.w3.org/1999/xlink" xmlns:svgjs="http://svgjs.dev/svgjs" viewBox="0 0 2400 800" opacity="1"><g fill="#d44d4d" transform="matrix(1,0,0,1,2.0377197265625,131.05819702148438)"><path d="M-10,10C117.08333333333334,31.041666666666664,347.9166666666667,125.16666666666667,600,111C852.0833333333333,96.83333333333333,950,-53.208333333333336,1200,-58C1450,-62.791666666666664,1550,81.95833333333333,1800,88C2050,94.04166666666667,2222.9166666666665,-94,2400,-29C2577.0833333333335,36,3254.1666666666665,206.45833333333331,2650,400C2045.8333333333335,593.5416666666667,156.25,795.8333333333334,-500,900" transform="matrix(1,0,0,1,0,124)" opacity="0.05"></path><path d="M-10,10C117.08333333333334,31.041666666666664,347.9166666666667,125.16666666666667,600,111C852.0833333333333,96.83333333333333,950,-53.208333333333336,1200,-58C1450,-62.791666666666664,1550,81.95833333333333,1800,88C2050,94.04166666666667,2222.9166666666665,-94,2400,-29C2577.0833333333335,36,3254.1666666666665,206.45833333333331,2650,400C2045.8333333333335,593.5416666666667,156.25,795.8333333333334,-500,900" transform="matrix(1,0,0,1,0,248)" opacity="0.53"></path><path d="M-10,10C117.08333333333334,31.041666666666664,347.9166666666667,125.16666666666667,600,111C852.0833333333333,96.83333333333333,950,-53.208333333333336,1200,-58C1450,-62.791666666666664,1550,81.95833333333333,1800,88C2050,94.04166666666667,2222.9166666666665,-94,2400,-29C2577.0833333333335,36,3254.1666666666665,206.45833333333331,2650,400C2045.8333333333335,593.5416666666667,156.25,795.8333333333334,-500,900" transform="matrix(1,0,0,1,0,372)" opacity="1.00"></path></g></svg>