<svg width="134" height="71" viewBox="0 0 134 71" fill="none" xmlns="http://www.w3.org/2000/svg">
<path d="M24.6529 0.362245L133.235 0L129.428 10.8673L35.5292 11.2296L24.6529 54.699H6.52577L0 29.3418L10.5137 20.2857L15.9519 43.0564H16.677L24.6529 0.362245Z" fill="#D44D4D"/>
<path d="M62.7206 54.8801L67.9774 29.3418H75.4096L70.6965 54.8801H62.7206Z" fill="#D44D4D"/>
<path d="M68.8828 25.5383L70.3329 18.4745H77.4025L76.1336 25.5383H68.8828Z" fill="#D44D4D"/>
<path fill-rule="evenodd" clip-rule="evenodd" d="M39.5166 18.4745L31.9032 54.8801H57.6438L64.7133 18.4745H39.5166ZM44.2295 23.5459L38.6101 49.6275H52.6782L57.9351 23.5459H44.2295Z" fill="#D44D4D"/>
<path fill-rule="evenodd" clip-rule="evenodd" d="M82.3599 18.4745L76.1346 54.679H97.1821L98.0056 49.5211H82.9528L87.4241 23.5179H102.157L102.963 18.4745H82.3599Z" fill="#D44D4D"/>
<path fill-rule="evenodd" clip-rule="evenodd" d="M107.737 18.4745L101.512 54.679H122.559L123.383 49.5211H108.33L112.801 23.5179H127.534L128.34 18.4745H107.737Z" fill="#D44D4D"/>
<path fill-rule="evenodd" clip-rule="evenodd" d="M107.357 38.7603L108.22 33.6887H126.874L126.066 38.7603H107.357ZM101.897 70.8722L101.875 70.9999H101.897V70.8722Z" fill="#D44D4D"/>
</svg>
